<mxfile host="app.diagrams.net" modified="2023-01-30T06:37:18.901Z" agent="5.0 (Macintosh; Intel Mac OS X 10_15_7) AppleWebKit/537.36 (KHTML, like Gecko) Chrome/109.0.0.0 Safari/537.36" etag="q7ngo3vPVTbzVexaXTFC" version="20.8.13" type="github">
  <diagram id="avfwd7jrtkeVVT9D_pRP" name="Page-1">
    <mxGraphModel dx="1045" dy="630" grid="1" gridSize="10" guides="1" tooltips="1" connect="1" arrows="1" fold="1" page="1" pageScale="1" pageWidth="850" pageHeight="1100" math="0" shadow="0">
      <root>
        <mxCell id="0" />
        <mxCell id="1" parent="0" />
        <mxCell id="zQwQU6theYASkWzjp6TX-2" value="" style="rounded=0;whiteSpace=wrap;html=1;" vertex="1" parent="1">
          <mxGeometry x="360" y="160" width="80" height="40" as="geometry" />
        </mxCell>
        <mxCell id="zQwQU6theYASkWzjp6TX-3" value="" style="rounded=0;whiteSpace=wrap;html=1;" vertex="1" parent="1">
          <mxGeometry x="360" y="200" width="80" height="40" as="geometry" />
        </mxCell>
        <mxCell id="zQwQU6theYASkWzjp6TX-4" value="" style="rounded=0;whiteSpace=wrap;html=1;" vertex="1" parent="1">
          <mxGeometry x="360" y="240" width="80" height="40" as="geometry" />
        </mxCell>
        <mxCell id="zQwQU6theYASkWzjp6TX-5" value="" style="rounded=0;whiteSpace=wrap;html=1;" vertex="1" parent="1">
          <mxGeometry x="360" y="280" width="80" height="40" as="geometry" />
        </mxCell>
        <mxCell id="zQwQU6theYASkWzjp6TX-6" value="" style="rounded=0;whiteSpace=wrap;html=1;" vertex="1" parent="1">
          <mxGeometry x="360" y="320" width="80" height="40" as="geometry" />
        </mxCell>
        <mxCell id="zQwQU6theYASkWzjp6TX-7" value="" style="rounded=0;whiteSpace=wrap;html=1;" vertex="1" parent="1">
          <mxGeometry x="360" y="360" width="80" height="40" as="geometry" />
        </mxCell>
        <mxCell id="zQwQU6theYASkWzjp6TX-8" value="" style="rounded=0;whiteSpace=wrap;html=1;" vertex="1" parent="1">
          <mxGeometry x="360" y="400" width="80" height="40" as="geometry" />
        </mxCell>
        <mxCell id="zQwQU6theYASkWzjp6TX-9" value="" style="rounded=0;whiteSpace=wrap;html=1;" vertex="1" parent="1">
          <mxGeometry x="360" y="440" width="80" height="40" as="geometry" />
        </mxCell>
        <mxCell id="zQwQU6theYASkWzjp6TX-17" value="" style="rounded=0;whiteSpace=wrap;html=1;" vertex="1" parent="1">
          <mxGeometry x="440" y="160" width="80" height="40" as="geometry" />
        </mxCell>
        <mxCell id="zQwQU6theYASkWzjp6TX-18" value="" style="rounded=0;whiteSpace=wrap;html=1;" vertex="1" parent="1">
          <mxGeometry x="440" y="200" width="80" height="40" as="geometry" />
        </mxCell>
        <mxCell id="zQwQU6theYASkWzjp6TX-19" value="" style="rounded=0;whiteSpace=wrap;html=1;" vertex="1" parent="1">
          <mxGeometry x="440" y="240" width="80" height="40" as="geometry" />
        </mxCell>
        <mxCell id="zQwQU6theYASkWzjp6TX-20" value="" style="rounded=0;whiteSpace=wrap;html=1;" vertex="1" parent="1">
          <mxGeometry x="440" y="280" width="80" height="40" as="geometry" />
        </mxCell>
        <mxCell id="zQwQU6theYASkWzjp6TX-21" value="" style="rounded=0;whiteSpace=wrap;html=1;" vertex="1" parent="1">
          <mxGeometry x="440" y="320" width="80" height="40" as="geometry" />
        </mxCell>
        <mxCell id="zQwQU6theYASkWzjp6TX-22" value="" style="rounded=0;whiteSpace=wrap;html=1;" vertex="1" parent="1">
          <mxGeometry x="440" y="360" width="80" height="40" as="geometry" />
        </mxCell>
        <mxCell id="zQwQU6theYASkWzjp6TX-23" value="" style="rounded=0;whiteSpace=wrap;html=1;" vertex="1" parent="1">
          <mxGeometry x="440" y="400" width="80" height="40" as="geometry" />
        </mxCell>
        <mxCell id="zQwQU6theYASkWzjp6TX-24" value="" style="rounded=0;whiteSpace=wrap;html=1;" vertex="1" parent="1">
          <mxGeometry x="440" y="440" width="80" height="40" as="geometry" />
        </mxCell>
        <mxCell id="zQwQU6theYASkWzjp6TX-25" value="" style="rounded=0;whiteSpace=wrap;html=1;" vertex="1" parent="1">
          <mxGeometry x="520" y="160" width="80" height="40" as="geometry" />
        </mxCell>
        <mxCell id="zQwQU6theYASkWzjp6TX-26" value="" style="rounded=0;whiteSpace=wrap;html=1;" vertex="1" parent="1">
          <mxGeometry x="520" y="200" width="80" height="40" as="geometry" />
        </mxCell>
        <mxCell id="zQwQU6theYASkWzjp6TX-27" value="" style="rounded=0;whiteSpace=wrap;html=1;" vertex="1" parent="1">
          <mxGeometry x="520" y="240" width="80" height="40" as="geometry" />
        </mxCell>
        <mxCell id="zQwQU6theYASkWzjp6TX-28" value="" style="rounded=0;whiteSpace=wrap;html=1;" vertex="1" parent="1">
          <mxGeometry x="520" y="280" width="80" height="40" as="geometry" />
        </mxCell>
        <mxCell id="zQwQU6theYASkWzjp6TX-29" value="" style="rounded=0;whiteSpace=wrap;html=1;" vertex="1" parent="1">
          <mxGeometry x="520" y="320" width="80" height="40" as="geometry" />
        </mxCell>
        <mxCell id="zQwQU6theYASkWzjp6TX-30" value="" style="rounded=0;whiteSpace=wrap;html=1;" vertex="1" parent="1">
          <mxGeometry x="520" y="360" width="80" height="40" as="geometry" />
        </mxCell>
        <mxCell id="zQwQU6theYASkWzjp6TX-31" value="" style="rounded=0;whiteSpace=wrap;html=1;" vertex="1" parent="1">
          <mxGeometry x="520" y="400" width="80" height="40" as="geometry" />
        </mxCell>
        <mxCell id="zQwQU6theYASkWzjp6TX-32" value="" style="rounded=0;whiteSpace=wrap;html=1;" vertex="1" parent="1">
          <mxGeometry x="520" y="440" width="80" height="40" as="geometry" />
        </mxCell>
        <mxCell id="zQwQU6theYASkWzjp6TX-33" value="" style="rounded=0;whiteSpace=wrap;html=1;" vertex="1" parent="1">
          <mxGeometry x="600" y="160" width="80" height="40" as="geometry" />
        </mxCell>
        <mxCell id="zQwQU6theYASkWzjp6TX-34" value="" style="rounded=0;whiteSpace=wrap;html=1;" vertex="1" parent="1">
          <mxGeometry x="600" y="200" width="80" height="40" as="geometry" />
        </mxCell>
        <mxCell id="zQwQU6theYASkWzjp6TX-35" value="" style="rounded=0;whiteSpace=wrap;html=1;" vertex="1" parent="1">
          <mxGeometry x="600" y="240" width="80" height="40" as="geometry" />
        </mxCell>
        <mxCell id="zQwQU6theYASkWzjp6TX-36" value="" style="rounded=0;whiteSpace=wrap;html=1;" vertex="1" parent="1">
          <mxGeometry x="600" y="280" width="80" height="40" as="geometry" />
        </mxCell>
        <mxCell id="zQwQU6theYASkWzjp6TX-37" value="" style="rounded=0;whiteSpace=wrap;html=1;" vertex="1" parent="1">
          <mxGeometry x="600" y="320" width="80" height="40" as="geometry" />
        </mxCell>
        <mxCell id="zQwQU6theYASkWzjp6TX-38" value="" style="rounded=0;whiteSpace=wrap;html=1;" vertex="1" parent="1">
          <mxGeometry x="600" y="360" width="80" height="40" as="geometry" />
        </mxCell>
        <mxCell id="zQwQU6theYASkWzjp6TX-39" value="" style="rounded=0;whiteSpace=wrap;html=1;" vertex="1" parent="1">
          <mxGeometry x="600" y="400" width="80" height="40" as="geometry" />
        </mxCell>
        <mxCell id="zQwQU6theYASkWzjp6TX-40" value="" style="rounded=0;whiteSpace=wrap;html=1;" vertex="1" parent="1">
          <mxGeometry x="600" y="440" width="80" height="40" as="geometry" />
        </mxCell>
      </root>
    </mxGraphModel>
  </diagram>
</mxfile>
